<?xml version="1.0" encoding="utf-8"?>
<!-- Generator: Adobe Illustrator 24.3.0, SVG Export Plug-In . SVG Version: 6.00 Build 0)  -->
<svg version="1.1" id="Layer_1" xmlns="http://www.w3.org/2000/svg" xmlns:xlink="http://www.w3.org/1999/xlink" x="0px" y="0px"
	 viewBox="0 0 100 100" style="enable-background:new 0 0 100 100;" xml:space="preserve">
<style type="text/css">
	.st0{fill:#FFFFFF;}
	.st1{fill:#010101;}
	.st2{clip-path:url(#SVGID_2_);}
	.st3{fill:url(#SVGID_3_);}
	.st4{fill:#232221;}
	.st5{clip-path:url(#SVGID_5_);}
	.st6{fill:#4DA847;}
	.st7{fill:#18181A;}
	.st8{fill:#243E80;}
	.st9{fill:#DC4527;}
	.st10{fill:#0D67B0;}
	.st11{clip-path:url(#SVGID_7_);}
	.st12{clip-path:url(#SVGID_9_);}
	.st13{clip-path:url(#SVGID_9_);fill:#006FBA;}
</style>
<g id="BMW-logo-white-default-53px">
	<g id="BMW-logo">
		<g id="BMW-logo-white">
			<g id="BMW-Logo-103x115-White-NEW">
				<path id="Shape" class="st0" d="M50,23.57C35.4,23.57,23.57,35.4,23.57,50S35.4,76.43,50,76.43S76.43,64.6,76.43,50
					S64.6,23.57,50,23.57L50,23.57z M74.72,50c0,13.65-11.06,24.72-24.72,24.72S25.28,63.65,25.28,50S36.35,25.28,50,25.28
					S74.72,36.35,74.72,50z"/>
				<g id="Group" transform="translate(7.304985, 3.108504)">
					<path id="W_60_" class="st0" d="M55.51,35.68c0.36,0.39,0.88,1.01,1.17,1.38l5.35-3.4c-0.27-0.35-0.69-0.88-1.01-1.26
						l-3.39,2.24l-0.23,0.2l0.17-0.25l1.5-2.99L58,30.55l-2.99,1.5l-0.25,0.17l0.2-0.23l2.24-3.39c-0.39-0.34-0.77-0.64-1.26-1.02
						l-3.4,5.35c0.43,0.33,1,0.82,1.36,1.15l3.2-1.66l0.21-0.15l-0.15,0.21L55.51,35.68z"/>
					<path id="M_60_" class="st0" d="M43.36,28.9l1.46-3.28l0.09-0.29l-0.03,0.3l0.15,4.38c0.51,0.05,1.04,0.12,1.57,0.21
						l-0.24-6.48c-0.73-0.08-1.46-0.14-2.19-0.17l-1.44,3.58l-0.05,0.27l-0.05-0.27l-1.44-3.58c-0.73,0.03-1.45,0.09-2.19,0.17
						l-0.24,6.48c0.52-0.09,1.05-0.16,1.57-0.21l0.15-4.38l-0.03-0.3l0.09,0.29l1.46,3.28H43.36z"/>
					<path id="B_x5F_22d_60_" class="st0" d="M31.53,34.07c0.85-0.89,1.32-1.92,0.48-2.9c-0.46-0.53-1.23-0.65-1.87-0.39l-0.06,0.02
						l0.02-0.06c0.09-0.25,0.16-1.06-0.53-1.62c-0.34-0.27-0.76-0.37-1.18-0.33c-0.79,0.08-1.41,0.62-3.07,2.48
						c-0.5,0.56-1.23,1.44-1.67,2.01l4.57,4.33C29.72,35.95,30.34,35.32,31.53,34.07z M25.57,33.01c0.92-1.13,1.9-2.15,2.34-2.55
						c0.14-0.13,0.29-0.25,0.48-0.3c0.3-0.08,0.61,0.13,0.68,0.44c0.07,0.31-0.12,0.6-0.34,0.85c-0.49,0.55-2.27,2.42-2.27,2.42
						L25.57,33.01z M27.36,34.7c0,0,1.74-1.84,2.3-2.42c0.23-0.23,0.37-0.37,0.53-0.45c0.2-0.1,0.42-0.12,0.62,0.01
						c0.19,0.13,0.28,0.35,0.23,0.57c-0.06,0.26-0.27,0.51-0.45,0.7c-0.24,0.26-2.3,2.46-2.3,2.47L27.36,34.7z"/>
				</g>
				<path id="Path" class="st0" d="M65.68,50H50V34.32C58.66,34.32,65.68,41.34,65.68,50z"/>
				<path id="Path_1_" class="st0" d="M50,50v15.68c-8.66,0-15.68-7.01-15.68-15.68H50L50,50z"/>
				<path id="Path_2_" class="st10" d="M50,34.32V50H34.32C34.32,41.34,41.34,34.32,50,34.32z"/>
				<path id="Path_3_" class="st10" d="M65.68,50c0,8.66-7.01,15.68-15.68,15.68V50H65.68z"/>
			</g>
		</g>
	</g>
</g>
</svg>
