<?xml version="1.0" encoding="utf-8"?>
<!-- Generator: Adobe Illustrator 24.3.0, SVG Export Plug-In . SVG Version: 6.00 Build 0)  -->
<svg version="1.1" id="Layer_1" xmlns="http://www.w3.org/2000/svg" xmlns:xlink="http://www.w3.org/1999/xlink" x="0px" y="0px"
	 viewBox="0 0 100 100" style="enable-background:new 0 0 100 100;" xml:space="preserve">
<style type="text/css">
	.st0{fill:#FFFFFF;}
	.st1{fill:#010101;}
	.st2{clip-path:url(#SVGID_2_);}
	.st3{fill:url(#SVGID_3_);}
	.st4{fill:#232221;}
	.st5{clip-path:url(#SVGID_5_);}
	.st6{fill:#4DA847;}
	.st7{fill:#18181A;}
	.st8{fill:#243E80;}
	.st9{fill:#DC4527;}
	.st10{fill:#0D67B0;}
	.st11{clip-path:url(#SVGID_7_);}
	.st12{clip-path:url(#SVGID_9_);}
	.st13{clip-path:url(#SVGID_9_);fill:#006FBA;}
</style>
<g>
	<g id="White_Backing">
		<path class="st0" d="M18.74,58.19c-1.1-0.01-2.18-0.23-3.19-0.64c-1.97-0.81-3.54-2.38-4.36-4.36c-0.42-1.01-0.63-2.1-0.64-3.19
			c0.01-1.1,0.23-2.18,0.64-3.19c0.81-1.97,2.38-3.54,4.36-4.36c1.01-0.42,2.1-0.63,3.19-0.64c1.1,0.01,2.18,0.23,3.19,0.64
			c1.97,0.81,3.54,2.38,4.36,4.36c0.42,1.01,0.63,2.1,0.64,3.19c-0.01,1.1-0.23,2.18-0.64,3.19c-0.81,1.97-2.38,3.54-4.36,4.36
			C20.92,57.97,19.83,58.19,18.74,58.19z"/>
	</g>
	<g id="Outline_Ring">
		<path class="st1" d="M18.74,41.75c-4.56,0-8.25,3.69-8.25,8.25s3.69,8.25,8.25,8.25s8.25-3.69,8.25-8.25l0,0
			C26.97,45.45,23.28,41.77,18.74,41.75z M18.74,58.13c-4.49,0-8.13-3.64-8.13-8.13s3.64-8.13,8.13-8.13s8.13,3.64,8.13,8.13
			S23.23,58.13,18.74,58.13z"/>
		<circle class="st0" cx="18.74" cy="50" r="8.13"/>
	</g>
	<g id="Fading_Ring">
		<g>
			<g>
				<defs>
					<path id="SVGID_1_" d="M26.23,46.86c-0.39-0.97-0.98-1.84-1.74-2.56c-0.74-0.74-1.6-1.33-2.56-1.74
						c-1-0.41-2.06-0.63-3.14-0.64c-1.08,0-2.14,0.22-3.14,0.64c-0.97,0.39-1.84,0.98-2.56,1.74c-0.74,0.74-1.33,1.6-1.74,2.56
						c-0.41,1-0.63,2.06-0.64,3.14c0,1.08,0.22,2.14,0.64,3.14c0.39,0.97,0.98,1.84,1.74,2.56c0.74,0.74,1.6,1.33,2.56,1.74
						c1,0.41,2.06,0.63,3.14,0.64c1.08,0,2.14-0.22,3.14-0.64c0.97-0.39,1.84-0.98,2.56-1.74c0.74-0.74,1.33-1.6,1.74-2.56
						c0.41-1,0.63-2.06,0.64-3.14C26.86,48.92,26.65,47.86,26.23,46.86z M23.97,55.23c-2.9,2.87-7.56,2.87-10.46,0
						c-2.87-2.9-2.87-7.56,0-10.46c2.9-2.87,7.56-2.87,10.46,0C26.83,47.67,26.83,52.33,23.97,55.23z"/>
				</defs>
				<clipPath id="SVGID_2_">
					<use xlink:href="#SVGID_1_"  style="overflow:visible;"/>
				</clipPath>
				<g class="st2">
					
						<linearGradient id="SVGID_3_" gradientUnits="userSpaceOnUse" x1="19.5287" y1="86.1025" x2="16.9498" y2="66.505" gradientTransform="matrix(1 0 0 -1 0.6 126.57)">
						<stop  offset="0.04" style="stop-color:#F1F0F0"/>
						<stop  offset="0.44" style="stop-color:#F1F0F0"/>
						<stop  offset="0.46" style="stop-color:#DFE0E1"/>
						<stop  offset="0.5" style="stop-color:#C5C8CA"/>
						<stop  offset="0.55" style="stop-color:#B4B8BC"/>
						<stop  offset="0.6" style="stop-color:#AAAEB3"/>
						<stop  offset="0.65" style="stop-color:#A6ABB1"/>
						<stop  offset="0.96" style="stop-color:#A6ABB1"/>
					</linearGradient>
					<rect x="10.2" y="41.34" class="st3" width="17.31" height="17.66"/>
				</g>
			</g>
		</g>
	</g>
	<g id="Inner_Ring">
		<path class="st0" d="M18.74,57.44c-1.99,0.01-3.89-0.79-5.29-2.21c-1.41-1.39-2.21-3.3-2.21-5.29c-0.02-1.99,0.78-3.9,2.21-5.29
			c1.39-1.41,3.3-2.21,5.29-2.21c1.99-0.02,3.9,0.78,5.29,2.21c1.41,1.39,2.21,3.3,2.21,5.29c0.02,1.99-0.78,3.9-2.21,5.29
			C22.64,56.65,20.73,57.45,18.74,57.44z"/>
		<path class="st4" d="M18.74,57.32c-1.94,0.01-3.81-0.76-5.17-2.15c-1.39-1.36-2.17-3.22-2.15-5.17c0.01-4.04,3.28-7.31,7.32-7.32
			c4.04,0.01,7.31,3.28,7.32,7.32c0.01,1.94-0.76,3.81-2.15,5.17C22.55,56.56,20.68,57.34,18.74,57.32z"/>
		<path class="st0" d="M18.74,56.74C15.01,56.74,12,53.72,12,50c0-1.79,0.71-3.5,1.97-4.76c2.63-2.63,6.89-2.63,9.52-0.01
			c0,0,0,0,0.01,0.01c2.63,2.63,2.63,6.9,0,9.53C22.23,56.03,20.52,56.74,18.74,56.74z"/>
	</g>
	<g id="Relief_Black">
		<g>
			<g>
				<defs>
					<path id="SVGID_4_" d="M21.81,54.18c-0.06,0-0.12-0.06-0.12-0.17v-0.17c0-0.06,0-0.17-0.12-0.17h-5.23
						c-0.06,0-0.06,0-0.12,0.06l-0.64,0.35c-0.05,0.04-0.11,0.07-0.17,0.06h-0.7c-0.06,0-0.12-0.06-0.17-0.12l-0.06-0.12
						c-0.12-0.22-0.25-0.44-0.41-0.64l-0.17-0.23c-0.04-0.09-0.1-0.17-0.17-0.23c-0.12-0.17-0.23-0.29-0.23-0.41
						c0.01-0.12,0.11-0.22,0.23-0.23h1.63c0.06,0,0.06,0,0.12,0.06l0.93,0.46c0.07,0.05,0.15,0.07,0.23,0.06
						c0.06,0.01,0.13-0.01,0.17-0.06c0.06-0.06,0.06-0.12,0.06-0.23c-0.29-1.68-1.33-2.67-3.48-3.02c-0.12,0-0.17-0.12-0.17-0.29
						c0.12-0.63,0.33-1.24,0.64-1.8c0.06-0.06,0.12-0.12,0.17-0.12h0.12c0.6,0.18,1.18,0.41,1.74,0.7c0.16,0.09,0.34,0.15,0.52,0.17
						c0.06,0.01,0.13-0.01,0.17-0.06c-0.57-0.51-1.2-0.96-1.86-1.34c-0.17-0.06-0.23-0.12-0.23-0.23c0-0.12,0-0.06,0.06-0.12
						c0.4-0.46,0.87-0.85,1.39-1.16c0.04-0.01,0.08-0.03,0.12-0.06c0.06,0,0.12,0,0.12,0.06c0.67,0.42,1.31,0.88,1.92,1.39
						c0.17,0.18,0.4,0.28,0.64,0.29c-0.42-0.74-0.97-1.38-1.63-1.92c-0.06-0.06-0.12-0.12-0.06-0.17c0.06-0.06,0.06-0.06,0.12-0.12
						c0.53-0.16,1.08-0.24,1.63-0.23h0.41c0.11,0,0.21,0.04,0.29,0.12c2.67,2.27,2.44,5.46,1.8,7.73l-0.06,0.12
						c0,0.06,0,0.23,0.06,0.29c0.06,0.06,0.06,0.06,0.12,0.06h0.12c0.06,0,0.12-0.06,0.12-0.17v-0.23c0.01-0.09,0.08-0.17,0.17-0.17
						c0.66,0.1,1.27,0.4,1.74,0.87c0.04,0.05,0.07,0.11,0.06,0.17c0,0.06,0,0.12-0.06,0.12C23.09,53.78,22.47,54.09,21.81,54.18z"/>
				</defs>
				<clipPath id="SVGID_5_">
					<use xlink:href="#SVGID_4_"  style="overflow:visible;"/>
				</clipPath>
				<g class="st5">
					<path class="st4" d="M15.42,52.67l1.05,0.35c0.25,0.1,0.53-0.03,0.62-0.27c0.04-0.1,0.04-0.21,0.01-0.31
						c-0.29-1.74-1.39-2.79-3.6-3.19c-0.06,0-0.06,0-0.06-0.06c0.06-0.49,0.22-0.97,0.46-1.39c0-0.03,0.03-0.06,0.06-0.06l0,0v-0.46
						c-0.06,0-0.06,0.06-0.12,0.12c-0.31,0.56-0.52,1.17-0.64,1.8c0,0.12,0.06,0.23,0.17,0.23c2.15,0.35,3.25,1.34,3.49,3.02
						c0,0.12,0,0.17-0.06,0.23c-0.05,0.04-0.11,0.07-0.17,0.06c-0.08,0.01-0.16-0.01-0.23-0.06l-0.93-0.46h-0.12l0.06,0.41
						C15.37,52.67,15.37,52.67,15.42,52.67z"/>
					<path class="st4" d="M23.62,53.19l-0.46,0.06v0.06c-0.33,0.29-0.73,0.5-1.16,0.58c-0.06,0-0.06,0-0.06-0.06v-0.06
						c-0.01-0.12-0.11-0.22-0.23-0.23h-5.4c-0.06-0.01-0.13,0.01-0.17,0.06c-0.17,0.12-0.41,0.23-0.58,0.35
						c-0.05,0.04-0.11,0.07-0.17,0.06h-0.52c-0.06,0-0.12,0-0.12-0.06c-0.23-0.41-0.46-0.7-0.76-1.16c-0.06-0.06-0.06-0.06,0-0.12
						l0,0l-0.35-0.35c-0.03,0.03-0.05,0.07-0.06,0.12c0.05,0.13,0.13,0.25,0.23,0.35c0.06,0.06,0.12,0.17,0.17,0.23l0.17,0.23
						c0.15,0.2,0.28,0.42,0.41,0.64l0.06,0.12c0.06,0.06,0.06,0.12,0.17,0.12h0.7c0.06,0.01,0.13-0.01,0.17-0.06l0.64-0.35
						c0.03-0.03,0.07-0.05,0.12-0.06h5.23c0.12,0,0.12,0.12,0.12,0.17v0.17c0.01,0.06,0.05,0.11,0.12,0.12l0,0
						c0.64-0.11,1.24-0.39,1.74-0.81L23.62,53.19z"/>
					<path class="st4" d="M21.7,52.38v0.23c0,0.06-0.06,0.17-0.12,0.17h-0.12c-0.06,0.01-0.13-0.01-0.17-0.06
						c-0.06-0.06-0.06-0.23-0.06-0.29l0.06-0.12c0.34-1.19,0.48-2.43,0.41-3.66c-0.01,0.52-0.1,1.03-0.29,1.51
						c-0.07,0.79-0.2,1.56-0.41,2.32c-0.12,0.35,0.12,0.52,0.41,0.52h0.29c0.12-0.01,0.22-0.11,0.23-0.23v-0.12l-0.12-0.35
						C21.7,52.27,21.7,52.32,21.7,52.38z"/>
					<path class="st4" d="M19.61,50.35c-0.57,0-1.04,0.46-1.05,1.03c0,0,0,0.01,0,0.01c-0.01,0.24,0.07,0.47,0.23,0.64l0.46-0.35
						c-0.07-0.11-0.11-0.22-0.12-0.35c0-0.35,0.29-0.64,0.64-0.64s0.64,0.29,0.64,0.64c0.01,0.18-0.08,0.36-0.23,0.46l0.23,0.23
						c0.14-0.19,0.22-0.41,0.23-0.64c0-0.57-0.46-1.04-1.03-1.05C19.62,50.35,19.61,50.35,19.61,50.35z"/>
					<path class="st4" d="M14.67,46.63c0.68,0.38,1.31,0.85,1.86,1.39c-0.03,0-0.06,0.03-0.06,0.06l0,0
						c0.18,0.15,0.34,0.33,0.46,0.52c0.23,0.29,0.35,0.46,0.46,0.58l0,0c0.17,0,0.29,0,0.35-0.06c0.06-0.06,0.06-0.06-0.06-0.17
						c0-0.06-0.06-0.06-0.06-0.12s-0.12-0.17-0.17-0.23l0,0c-0.06-0.06-0.12-0.17-0.17-0.23l0,0c-0.07-0.07-0.13-0.14-0.17-0.23l0,0
						l-0.17-0.17l0,0l-0.17-0.17l0,0l-0.17-0.17l0,0l-0.17-0.17l0,0l-0.17-0.17l0,0c-0.06-0.06-0.12-0.12-0.17-0.12l0,0
						c-0.06-0.06-0.12-0.06-0.17-0.12l0,0c-0.06-0.06-0.12-0.06-0.17-0.12l0,0c-0.06-0.06-0.12-0.06-0.17-0.12l0,0
						c-0.06-0.06-0.12-0.06-0.17-0.12l0,0c-0.06-0.06-0.12-0.06-0.17-0.12l0,0c-0.03-0.03-0.07-0.05-0.12-0.06l0,0
						c-0.04-0.01-0.08-0.03-0.12-0.06c-0.06-0.06-0.12-0.06,0-0.17c0.28-0.29,0.59-0.54,0.93-0.76h0.06l0.23-0.35l0,0
						c-0.06,0-0.12,0-0.12,0.06c-0.52,0.32-0.99,0.71-1.39,1.16c-0.06,0.06-0.06,0.06-0.06,0.12C14.5,46.46,14.55,46.52,14.67,46.63
						z"/>
					<path class="st4" d="M17.11,44.89c0.69,0.54,1.26,1.21,1.68,1.97h-0.12c0.26,0.49,0.5,0.99,0.7,1.51v0.06h0.23
						c0.06,0,0.06,0,0.06-0.06v-0.06c-0.31-1.06-0.87-2.04-1.63-2.85l0,0l-0.06-0.06l0,0l-0.06-0.06l0,0l-0.06-0.05l0,0l-0.06-0.06
						l0,0l-0.06-0.06l0,0c-0.03,0-0.06-0.03-0.06-0.06l0,0l-0.06-0.06L17.57,45l-0.06-0.06c-0.06-0.06-0.06-0.12,0.06-0.12
						c0.36-0.08,0.73-0.14,1.1-0.17h0.23l0.41-0.17h-0.46c-0.55-0.01-1.1,0.07-1.63,0.23c-0.12,0-0.12,0.06-0.12,0.12
						C17.05,44.77,17.05,44.83,17.11,44.89z"/>
				</g>
			</g>
		</g>
	</g>
	<g id="Figure_P362C">
		<path class="st6" d="M23.09,53.19c-0.34-0.27-0.74-0.47-1.16-0.58c-0.06,0-0.06,0-0.06,0.06v0.06c-0.01,0.12-0.11,0.22-0.23,0.23
			h-0.29c-0.24-0.01-0.43-0.21-0.42-0.46c0-0.02,0-0.05,0.01-0.07c1.05-3.83-0.12-6.22-1.8-7.73c-0.17-0.17-0.29-0.12-0.52-0.12
			c-0.37,0-0.75,0.06-1.1,0.17c-0.12,0-0.12,0.06-0.06,0.12c1.08,0.92,1.87,2.13,2.27,3.48c0,0.06,0,0.06-0.06,0.06
			c-0.3,0-0.59-0.15-0.76-0.41c-0.82-1.01-1.83-1.86-2.96-2.5c-0.04-0.05-0.11-0.06-0.16-0.02c-0.01,0.01-0.01,0.01-0.02,0.02
			c-0.36,0.18-0.67,0.44-0.93,0.76c-0.05,0.04-0.06,0.11-0.02,0.16c0.01,0.01,0.01,0.01,0.02,0.02c1.16,0.62,2.17,1.5,2.96,2.56
			c0.04,0.05,0.07,0.11,0.06,0.17c-0.34,0.1-0.71,0.04-0.99-0.17c-0.91-0.51-1.86-0.94-2.85-1.28c-0.12-0.06-0.17,0-0.17,0.06
			c-0.22,0.44-0.38,0.91-0.46,1.39c0,0.06,0,0.06,0.06,0.06c2.21,0.46,3.31,1.45,3.6,3.19c0.07,0.26-0.08,0.52-0.33,0.6
			c-0.1,0.03-0.21,0.02-0.31-0.01l-1.05-0.35h-1.51c-0.06,0-0.12,0.06-0.06,0.12c0.29,0.46,0.52,0.76,0.76,1.16
			c0,0.06,0.06,0.06,0.12,0.06h0.52c0.06,0.01,0.13-0.01,0.17-0.06c0.17-0.12,0.41-0.23,0.58-0.35c0.05-0.04,0.11-0.07,0.17-0.06
			h5.4c0.12,0.01,0.22,0.11,0.23,0.23v0.06c0,0.06,0,0.06,0.06,0.06c0.43-0.1,0.83-0.3,1.16-0.58
			C23.15,53.25,23.15,53.19,23.09,53.19z M19.61,52.5c-0.58,0-1.05-0.47-1.05-1.05c0-0.58,0.47-1.05,1.05-1.05
			c0.58,0,1.05,0.47,1.05,1.05l0,0C20.64,52.02,20.18,52.48,19.61,52.5z"/>
		<path class="st6" d="M23.09,53.19c-0.34-0.27-0.74-0.47-1.16-0.58c-0.06,0-0.06,0-0.06,0.06v0.06c-0.01,0.12-0.11,0.22-0.23,0.23
			h-0.29c-0.24-0.01-0.43-0.21-0.42-0.46c0-0.02,0-0.05,0.01-0.07c1.05-3.83-0.12-6.22-1.8-7.73c-0.17-0.17-0.29-0.12-0.52-0.12
			c-0.37,0-0.75,0.06-1.1,0.17c-0.12,0-0.12,0.06-0.06,0.12c1.08,0.92,1.87,2.13,2.27,3.48c0,0.06,0,0.06-0.06,0.06
			c-0.3,0-0.59-0.15-0.76-0.41c-0.82-1.01-1.83-1.86-2.96-2.5c-0.04-0.05-0.11-0.06-0.16-0.02c-0.01,0.01-0.01,0.01-0.02,0.02
			c-0.36,0.18-0.67,0.44-0.93,0.76c-0.05,0.04-0.06,0.11-0.02,0.16c0.01,0.01,0.01,0.01,0.02,0.02c1.16,0.62,2.17,1.5,2.96,2.56
			c0.04,0.05,0.07,0.11,0.06,0.17c-0.34,0.1-0.71,0.04-0.99-0.17c-0.91-0.51-1.86-0.94-2.85-1.28c-0.12-0.06-0.17,0-0.17,0.06
			c-0.22,0.44-0.38,0.91-0.46,1.39c0,0.06,0,0.06,0.06,0.06c2.21,0.46,3.31,1.45,3.6,3.19c0.07,0.26-0.08,0.52-0.33,0.6
			c-0.1,0.03-0.21,0.02-0.31-0.01l-1.05-0.35h-1.51c-0.06,0-0.12,0.06-0.06,0.12c0.29,0.46,0.52,0.76,0.76,1.16
			c0,0.06,0.06,0.06,0.12,0.06h0.52c0.06,0.01,0.13-0.01,0.17-0.06c0.17-0.12,0.41-0.23,0.58-0.35c0.05-0.04,0.11-0.07,0.17-0.06
			h5.4c0.12,0.01,0.22,0.11,0.23,0.23v0.06c0,0.06,0,0.06,0.06,0.06c0.43-0.1,0.83-0.3,1.16-0.58
			C23.15,53.25,23.15,53.19,23.09,53.19z M19.61,52.5c-0.58,0-1.05-0.47-1.05-1.05c0-0.58,0.47-1.05,1.05-1.05
			c0.58,0,1.05,0.47,1.05,1.05l0,0C20.64,52.02,20.18,52.48,19.61,52.5z"/>
		<path class="st6" d="M23.09,53.19c-0.34-0.27-0.74-0.47-1.16-0.58c-0.06,0-0.06,0-0.06,0.06v0.06c-0.01,0.12-0.11,0.22-0.23,0.23
			h-0.29c-0.24-0.01-0.43-0.21-0.42-0.46c0-0.02,0-0.05,0.01-0.07c1.05-3.83-0.12-6.22-1.8-7.73c-0.17-0.17-0.29-0.12-0.52-0.12
			c-0.37,0-0.75,0.06-1.1,0.17c-0.12,0-0.12,0.06-0.06,0.12c1.08,0.92,1.87,2.13,2.27,3.48c0,0.06,0,0.06-0.06,0.06
			c-0.3,0-0.59-0.15-0.76-0.41c-0.82-1.01-1.83-1.86-2.96-2.5c-0.04-0.05-0.11-0.06-0.16-0.02c-0.01,0.01-0.01,0.01-0.02,0.02
			c-0.36,0.18-0.67,0.44-0.93,0.76c-0.05,0.04-0.06,0.11-0.02,0.16c0.01,0.01,0.01,0.01,0.02,0.02c1.16,0.62,2.17,1.5,2.96,2.56
			c0.04,0.05,0.07,0.11,0.06,0.17c-0.34,0.1-0.71,0.04-0.99-0.17c-0.91-0.51-1.86-0.94-2.85-1.28c-0.12-0.06-0.17,0-0.17,0.06
			c-0.22,0.44-0.38,0.91-0.46,1.39c0,0.06,0,0.06,0.06,0.06c2.21,0.46,3.31,1.45,3.6,3.19c0.07,0.26-0.08,0.52-0.33,0.6
			c-0.1,0.03-0.21,0.02-0.31-0.01l-1.05-0.35h-1.51c-0.06,0-0.12,0.06-0.06,0.12c0.29,0.46,0.52,0.76,0.76,1.16
			c0,0.06,0.06,0.06,0.12,0.06h0.52c0.06,0.01,0.13-0.01,0.17-0.06c0.17-0.12,0.41-0.23,0.58-0.35c0.05-0.04,0.11-0.07,0.17-0.06
			h5.4c0.12,0.01,0.22,0.11,0.23,0.23v0.06c0,0.06,0,0.06,0.06,0.06c0.43-0.1,0.83-0.3,1.16-0.58
			C23.15,53.25,23.15,53.19,23.09,53.19z M19.61,52.5c-0.58,0-1.05-0.47-1.05-1.05c0-0.58,0.47-1.05,1.05-1.05
			c0.58,0,1.05,0.47,1.05,1.05l0,0C20.64,52.02,20.18,52.48,19.61,52.5z"/>
	</g>
	<g id="Outline_Black">
		<path class="st4" d="M23.62,53.02c-0.5-0.47-1.12-0.78-1.8-0.87c-0.12,0.01-0.22,0.11-0.23,0.23v0.23c0,0.06,0,0.06-0.06,0.06
			h-0.12c-0.06,0-0.06,0-0.12-0.06v-0.17l0.06-0.12c0.7-2.32,0.93-5.52-1.8-7.84c-0.12-0.12-0.23-0.12-0.35-0.17h-0.41
			c-0.55-0.01-1.1,0.07-1.63,0.23c-0.12,0.06-0.17,0.12-0.17,0.17c-0.01,0.09,0.03,0.18,0.12,0.23c0.6,0.52,1.13,1.13,1.57,1.8
			c-0.23,0-0.35-0.12-0.52-0.29c-0.6-0.51-1.25-0.98-1.92-1.39c-0.06,0-0.12-0.06-0.17-0.06C16,45,15.93,45.02,15.89,45.07
			c-0.55,0.32-1.04,0.74-1.45,1.22c-0.04,0.05-0.07,0.11-0.06,0.17c0,0.12,0.12,0.17,0.29,0.23c0.64,0.37,1.24,0.8,1.8,1.28h-0.12
			c-0.18-0.02-0.36-0.08-0.52-0.17c-0.57-0.26-1.15-0.5-1.74-0.7h-0.12c-0.17,0-0.23,0.12-0.23,0.17c-0.3,0.57-0.51,1.17-0.64,1.8
			c0,0.17,0.06,0.35,0.23,0.35c2.09,0.35,3.19,1.28,3.43,2.96c0,0.06,0,0.17-0.06,0.17c-0.03,0.03-0.07,0.05-0.12,0.06
			c-0.06,0.01-0.13-0.01-0.17-0.06l-0.93-0.46c-0.04-0.01-0.08-0.03-0.12-0.06h-1.63c-0.23,0-0.29,0.12-0.29,0.29
			c0,0.17,0.12,0.23,0.23,0.41c0.06,0.06,0.12,0.17,0.17,0.23l0.17,0.23c0.15,0.2,0.28,0.42,0.41,0.64l0.06,0.12
			c0.06,0.12,0.12,0.12,0.23,0.12h0.7c0.06,0.01,0.13-0.01,0.17-0.06l0.64-0.35h5.34c0.03,0,0.06,0.03,0.06,0.06l0,0v0.17
			c0,0.12,0.06,0.23,0.17,0.23h0.06c0.68-0.1,1.3-0.4,1.8-0.87c0.04-0.05,0.07-0.11,0.06-0.17C23.73,53.14,23.67,53.08,23.62,53.02z
			 M23.56,53.31c-0.47,0.46-1.09,0.75-1.74,0.81l0,0c-0.06,0-0.06-0.06-0.06-0.12v-0.17c0.01-0.09-0.05-0.16-0.14-0.17
			c-0.01,0-0.03,0-0.04,0H16.3c-0.06-0.01-0.13,0.01-0.17,0.06c-0.23,0.12-0.41,0.23-0.64,0.35c-0.04,0.01-0.08,0.03-0.12,0.06h-0.7
			c-0.06,0-0.12,0-0.12-0.06l-0.06-0.12c-0.29-0.46-0.29-0.52-0.58-0.93c-0.17-0.29-0.41-0.46-0.41-0.58
			c-0.01-0.09,0.05-0.16,0.14-0.17c0.01,0,0.03,0,0.04,0h1.74c0,0,0.64,0.29,0.93,0.46s0.58,0,0.52-0.29
			c-0.29-1.97-1.68-2.73-3.54-3.08c-0.12,0-0.12-0.12-0.12-0.23c0.11-0.63,0.3-1.23,0.58-1.8c0.06-0.07,0.14-0.11,0.23-0.12
			c0.6,0.19,1.18,0.42,1.74,0.7c0.46,0.23,0.64,0.17,0.81,0.06v-0.12c-0.6-0.51-1.24-0.98-1.92-1.39c-0.17-0.06-0.23-0.12-0.12-0.23
			c0.41-0.45,0.88-0.84,1.39-1.16c0.07-0.06,0.17-0.06,0.23,0c0.67,0.42,1.31,0.88,1.92,1.39c0.19,0.18,0.44,0.28,0.7,0.29
			c0.06,0,0.12,0,0.12-0.06c-0.45-0.74-1.02-1.41-1.68-1.97c-0.06-0.06-0.06-0.06-0.06-0.12c0-0.06,0.06-0.06,0.12-0.06
			c0.53-0.17,1.08-0.25,1.63-0.23h0.35c0.12,0,0.17,0.06,0.29,0.12c2.85,2.38,2.32,5.81,1.74,7.73l0,0c0,0.06,0,0.06-0.06,0.12
			c-0.01,0.12,0.01,0.24,0.06,0.35c0.06,0.06,0.12,0.12,0.17,0.12h0.12c0.09-0.01,0.17-0.08,0.17-0.17v-0.23
			c0.01-0.06,0.05-0.11,0.12-0.12l0,0c0.62,0.11,1.21,0.39,1.68,0.81c0.03,0.03,0.05,0.07,0.06,0.12
			C23.62,53.25,23.56,53.25,23.56,53.31z"/>
		<path class="st4" d="M19.78,50.64c-0.42,0-0.76,0.34-0.76,0.76c0,0.42,0.34,0.76,0.76,0.76s0.76-0.34,0.76-0.76l0,0
			C20.51,50.99,20.19,50.67,19.78,50.64z M19.78,51.97c-0.35,0-0.64-0.29-0.64-0.64c0-0.35,0.29-0.64,0.64-0.64s0.64,0.29,0.64,0.64
			c0.03,0.32-0.2,0.6-0.52,0.64C19.86,51.98,19.82,51.98,19.78,51.97z"/>
		<path class="st0" d="M19.78,51.97c-0.35,0-0.64-0.29-0.64-0.64c0-0.35,0.29-0.64,0.64-0.64s0.64,0.29,0.64,0.64
			c0.03,0.32-0.2,0.6-0.52,0.64C19.86,51.98,19.82,51.98,19.78,51.97z"/>
	</g>
	<g id="Lettering">
		<path class="st0" d="M32.62,54.13c1.22,0.06,3.19,0.12,4.36,0.12c4.99,0,5.58,0,5.58-2.73c0-2.15-0.64-2.32-3.25-2.38l-3.08-0.06
			c-1.39-0.06-1.45-0.17-1.45-0.81s0.17-0.64,3.54-0.64c0.64,0,2.67,0.06,3.78,0.06c0.09,0.01,0.16-0.05,0.17-0.14
			c0-0.01,0-0.03,0-0.04v-1.39c0.01-0.09-0.05-0.16-0.14-0.17c-0.01,0-0.03,0-0.04,0c-1.05-0.06-2.79-0.12-4.07-0.12
			c-4.88,0-5.69,0.12-5.69,2.61c0,2.15,0.46,2.44,3.6,2.56l2.79,0.12c1.34,0.06,1.34,0.23,1.34,0.7c0,0.7-0.06,0.7-3.19,0.7
			c-1.45,0-2.96-0.06-4.3-0.12c-0.09-0.01-0.16,0.05-0.17,0.14c0,0.01,0,0.03,0,0.04v1.45C32.5,54.07,32.56,54.13,32.62,54.13
			 M85.42,51.1h-3.66l1.68-3.31h0.29L85.42,51.1z M74.73,49.94v0.12c0,2.09-0.17,2.21-2.9,2.21h-2.27v-4.47h2.27
			C74.56,47.79,74.73,47.85,74.73,49.94 M62.89,49.94v0.12c0,2.32-0.12,2.32-2.79,2.32c-2.67,0-2.79-0.06-2.79-2.32v-0.12
			c0-2.32,0.12-2.32,2.79-2.32C62.77,47.62,62.89,47.62,62.89,49.94 M89.49,53.95l-3.95-7.9c-0.06-0.12-0.12-0.12-0.17-0.12h-3.48
			c-0.12,0-0.17,0.06-0.17,0.12l-3.95,7.9c-0.06,0.12,0,0.23,0.12,0.23h2.27c0.12,0,0.17-0.06,0.17-0.12l0.58-1.16h5.4l0.58,1.16
			c0.06,0.12,0.12,0.12,0.17,0.12h2.27C89.49,54.13,89.55,54.07,89.49,53.95 M71.83,45.88h-4.59c-0.09-0.01-0.16,0.05-0.17,0.14
			c0,0.01,0,0.03,0,0.04v7.9c-0.01,0.09,0.05,0.16,0.14,0.17c0.01,0,0.03,0,0.04,0h4.59c4.88,0,5.52-0.23,5.52-4.07V50
			C77.35,46.11,76.71,45.88,71.83,45.88 M54.11,53.95l-4.53-4.47l4.3-3.37c0.12-0.12,0.06-0.23-0.06-0.23h-2.79
			c-0.08,0-0.16,0.02-0.23,0.06l-4.36,3.48v-3.37c0.01-0.09-0.05-0.16-0.14-0.17c-0.01,0-0.03,0-0.04,0h-2.15
			c-0.09-0.01-0.16,0.05-0.17,0.14c0,0.01,0,0.03,0,0.04v7.9c-0.01,0.09,0.05,0.16,0.14,0.17c0.01,0,0.03,0,0.04,0h2.15
			c0.09,0.01,0.16-0.05,0.17-0.14c0-0.01,0-0.03,0-0.04v-1.97l1.28-1.05l3.14,3.08c0.06,0.07,0.14,0.11,0.23,0.12h3.02
			C54.23,54.13,54.23,54.01,54.11,53.95 M54.64,49.94v0.12c0,4.01,0.64,4.24,5.46,4.24s5.46-0.23,5.46-4.24v-0.12
			c0-4.01-0.64-4.24-5.46-4.24S54.64,45.99,54.64,49.94 M35.35,43.96l1.05,1.16c0.06,0.07,0.14,0.11,0.23,0.12h2.21
			c0.12,0,0.17,0,0.23-0.12l1.05-1.16c0.12-0.12,0.06-0.23-0.12-0.23h-1.45c-0.09,0-0.18,0.04-0.23,0.12l-0.46,0.64h-0.29
			l-0.46-0.64c-0.06-0.07-0.14-0.11-0.23-0.12h-1.45C35.29,43.78,35.23,43.9,35.35,43.96"/>
	</g>
</g>
</svg>
