<?xml version="1.0" encoding="utf-8"?>
<!-- Generator: Adobe Illustrator 24.3.0, SVG Export Plug-In . SVG Version: 6.00 Build 0)  -->
<svg version="1.1" id="Layer_1" xmlns="http://www.w3.org/2000/svg" xmlns:xlink="http://www.w3.org/1999/xlink" x="0px" y="0px"
	 viewBox="0 0 100 100" style="enable-background:new 0 0 100 100;" xml:space="preserve">
<style type="text/css">
	.st0{fill:#FFFFFF;}
	.st1{fill:#010101;}
	.st2{clip-path:url(#SVGID_2_);}
	.st3{fill:url(#SVGID_3_);}
	.st4{fill:#232221;}
	.st5{clip-path:url(#SVGID_5_);}
	.st6{fill:#4DA847;}
	.st7{fill:#18181A;}
	.st8{fill:#243E80;}
	.st9{fill:#DC4527;}
	.st10{fill:#0D67B0;}
	.st11{clip-path:url(#SVGID_7_);}
	.st12{clip-path:url(#SVGID_9_);}
	.st13{clip-path:url(#SVGID_9_);fill:#006FBA;}
</style>
<path class="st7" d="M8.37,47.77l2.97,5.39l3.43,0l2.92-5.39l1.46,0v-0.98h-4.4v0.98h1.27l-2.12,3.93l-2.15-3.92l1.54,0l0-0.98H6.92
	l0,0.98H8.37 M46.16,47.76l0-0.97l5.88,0v0.97h-1.46v4.4h1.36c1.26,0,2.08-0.83,2.08-1.96h0.97v2.95l-8.83,0v-0.99h1.48l0-4.4H46.16
	 M31.87,52.33c-1.08-0.02-1.55-1.21-1.53-2.4c0.02-1.23,0.61-2.3,1.62-2.28c1.01,0.02,1.54,1.11,1.52,2.33
	C33.46,51.15,32.98,52.35,31.87,52.33 M31.9,46.66c-2.95,0-4.52,1.47-4.52,3.32c0,1.87,1.51,3.37,4.54,3.37
	c3.03,0,4.52-1.49,4.52-3.37C36.44,48.13,34.85,46.66,31.9,46.66 M65.02,47.77l2.97,5.39l3.43,0l2.92-5.39l1.46,0v-0.98h-4.4v0.98
	h1.27l-2.12,3.93l-2.15-3.92l1.54,0l0-0.98h-6.38l0,0.98H65.02 M88.51,52.33c-1.08-0.02-1.55-1.21-1.53-2.4
	c0.02-1.23,0.61-2.3,1.62-2.28c1.01,0.02,1.54,1.11,1.52,2.33C90.1,51.15,89.63,52.35,88.51,52.33 M88.55,46.66
	c-2.95,0-4.52,1.47-4.52,3.32c0,1.87,1.51,3.37,4.54,3.37c3.03,0,4.52-1.49,4.52-3.37C93.09,48.13,91.5,46.66,88.55,46.66"/>
</svg>
