<?xml version="1.0" encoding="utf-8"?>
<!-- Generator: Adobe Illustrator 24.3.0, SVG Export Plug-In . SVG Version: 6.00 Build 0)  -->
<svg version="1.1" id="Layer_1" xmlns="http://www.w3.org/2000/svg" xmlns:xlink="http://www.w3.org/1999/xlink" x="0px" y="0px"
	 viewBox="0 0 100 100" style="enable-background:new 0 0 100 100;" xml:space="preserve">
<style type="text/css">
	.st0{fill:#FFFFFF;}
	.st1{fill:#010101;}
	.st2{clip-path:url(#SVGID_2_);}
	.st3{fill:url(#SVGID_3_);}
	.st4{fill:#232221;}
	.st5{clip-path:url(#SVGID_5_);}
	.st6{fill:#4DA847;}
	.st7{fill:#18181A;}
	.st8{fill:#243E80;}
	.st9{fill:#DC4527;}
	.st10{fill:#0D67B0;}
	.st11{clip-path:url(#SVGID_7_);}
	.st12{clip-path:url(#SVGID_9_);}
	.st13{clip-path:url(#SVGID_9_);fill:#006FBA;}
</style>
<g>
	<g>
		<defs>
			<rect id="SVGID_6_" x="19.14" y="36.18" width="61.71" height="27.63"/>
		</defs>
		<clipPath id="SVGID_2_">
			<use xlink:href="#SVGID_6_"  style="overflow:visible;"/>
		</clipPath>
		<g class="st2">
			<defs>
				<rect id="SVGID_8_" x="19.14" y="36.18" width="61.71" height="27.63"/>
			</defs>
			<clipPath id="SVGID_3_">
				<use xlink:href="#SVGID_8_"  style="overflow:visible;"/>
			</clipPath>
			<path style="clip-path:url(#SVGID_3_);" d="M44.02,48.17c0,0.6-0.37,1.09-1.4,1.09h-1.83v-3.68h1.86c0.85,0,1.27,0.46,1.27,0.98
				c0,0.32-0.13,0.64-0.45,0.8C43.87,47.51,44.02,47.87,44.02,48.17 M41.76,46.36v0.7h0.79c0.21,0,0.36-0.15,0.36-0.36
				s-0.16-0.34-0.36-0.34H41.76z M43.02,48.11c0-0.2-0.14-0.34-0.39-0.34h-0.87v0.68h0.86C42.88,48.46,43.02,48.35,43.02,48.11"/>
			<path style="clip-path:url(#SVGID_3_);" d="M47.9,49.25l-0.08-2.45c-0.06,0.22-0.12,0.44-0.19,0.66l-0.58,1.79H46.1l-0.58-1.79
				c-0.07-0.22-0.13-0.43-0.19-0.65l-0.08,2.44h-0.94l0.15-3.68h1.35l0.76,2.55l0.76-2.55h1.35l0.15,3.68H47.9z"/>
			<path style="clip-path:url(#SVGID_3_);" d="M54.42,45.57c-0.3,1.25-0.62,2.43-1,3.68h-1.19l-0.51-2.31l-0.51,2.31h-1.18
				c-0.38-1.26-0.7-2.44-1.01-3.68h1.05c0.18,0.79,0.38,1.63,0.58,2.45l0.52-2.45h1.09l0.52,2.45c0.21-0.82,0.41-1.66,0.58-2.45
				H54.42z"/>
			<path style="clip-path:url(#SVGID_3_);" d="M44.22,54.43l-0.08-2.45c-0.06,0.22-0.12,0.44-0.19,0.66l-0.58,1.79h-0.94l-0.58-1.79
				c-0.07-0.22-0.13-0.43-0.19-0.65l-0.08,2.44h-0.94l0.15-3.68h1.35l0.76,2.55l0.76-2.55H45l0.15,3.68H44.22z"/>
			<path style="clip-path:url(#SVGID_3_);" d="M45.42,52.59c0-1.17,0.98-1.92,2.04-1.92c1.06,0,2.04,0.75,2.04,1.92
				c0,1.17-0.98,1.92-2.04,1.92C46.4,54.51,45.42,53.76,45.42,52.59 M48.5,52.59c0-0.58-0.47-1.05-1.04-1.05
				c-0.58,0-1.04,0.47-1.04,1.05c0,0.58,0.46,1.05,1.04,1.05C48.04,53.63,48.5,53.17,48.5,52.59"/>
			<polygon style="clip-path:url(#SVGID_3_);" points="52.64,51.58 51.57,51.58 51.57,54.43 50.58,54.43 50.58,51.58 49.52,51.58 
				49.52,50.75 52.64,50.75 			"/>
			<path style="clip-path:url(#SVGID_3_);" d="M52.65,52.59c0-1.17,0.98-1.92,2.04-1.92c1.06,0,2.04,0.75,2.04,1.92
				c0,1.17-0.98,1.92-2.04,1.92C53.63,54.51,52.65,53.76,52.65,52.59 M55.73,52.59c0-0.58-0.47-1.05-1.04-1.05
				c-0.58,0-1.04,0.47-1.04,1.05c0,0.58,0.46,1.05,1.04,1.05C55.27,53.63,55.73,53.17,55.73,52.59"/>
			<path style="clip-path:url(#SVGID_3_);" d="M60.29,54.41v0.02h-1.06c-0.07-0.19-0.14-0.39-0.24-0.6
				c-0.09-0.19-0.2-0.38-0.31-0.53h-0.62v1.13h-0.98v-3.68h1.61c1.04,0,1.43,0.62,1.43,1.21c0,0.43-0.19,0.78-0.55,1.01
				c0.16,0.23,0.29,0.47,0.4,0.69C60.1,53.91,60.21,54.17,60.29,54.41 M58.08,52.5h0.63c0.26,0,0.47-0.17,0.47-0.47
				c0-0.29-0.2-0.47-0.47-0.47h-0.63V52.5z"/>
			<path style="clip-path:url(#SVGID_3_);" d="M63.87,54.41v0.02h-1.06c-0.07-0.19-0.14-0.39-0.24-0.6
				c-0.09-0.19-0.2-0.38-0.31-0.53h-0.62v1.13h-0.98v-3.68h1.61c1.04,0,1.43,0.62,1.43,1.21c0,0.43-0.19,0.78-0.55,1.01
				c0.16,0.23,0.29,0.47,0.4,0.69C63.68,53.91,63.78,54.17,63.87,54.41 M61.65,52.5h0.63c0.26,0,0.47-0.17,0.47-0.47
				c0-0.29-0.2-0.47-0.47-0.47h-0.63V52.5z"/>
			<path style="clip-path:url(#SVGID_3_);" d="M66.67,53.72H65.3c-0.06,0.24-0.12,0.48-0.18,0.71h-0.99c0.33-1.35,0.7-2.54,1.2-3.68
				h1.33c0.49,1.15,0.87,2.34,1.19,3.68h-0.99C66.8,54.19,66.74,53.95,66.67,53.72 M66.44,52.86c-0.14-0.51-0.3-0.99-0.45-1.37
				c-0.16,0.38-0.31,0.86-0.46,1.37H66.44z"/>
			<path style="clip-path:url(#SVGID_3_);" d="M71.65,52.59c0,1.04-0.8,1.84-2.09,1.84h-1.4v-3.68h1.4
				C70.85,50.75,71.65,51.55,71.65,52.59 M70.64,52.59c0-0.67-0.52-0.99-1.09-0.99h-0.42v1.99h0.42
				C70.13,53.58,70.64,53.26,70.64,52.59"/>
			<path style="clip-path:url(#SVGID_3_);" d="M32.96,45.39c-2.54,0-4.61,2.06-4.61,4.61s2.06,4.61,4.61,4.61
				c2.54,0,4.61-2.06,4.61-4.61S35.5,45.39,32.96,45.39 M37.27,50c0,2.38-1.93,4.31-4.31,4.31c-2.38,0-4.31-1.93-4.31-4.31
				s1.93-4.31,4.31-4.31C35.34,45.69,37.27,47.62,37.27,50"/>
			<path style="clip-path:url(#SVGID_3_);" d="M32.96,47.27v0.15c1.42,0,2.58,1.16,2.58,2.58h0.15
				C35.69,48.49,34.47,47.27,32.96,47.27 M32.96,52.58c-1.42,0-2.58-1.16-2.58-2.58h-0.15c0,1.51,1.22,2.73,2.73,2.73"/>
			<path style="clip-path:url(#SVGID_3_);" d="M35.19,48.05c0.06,0.07,0.15,0.18,0.2,0.24l0.93-0.59c-0.05-0.06-0.12-0.15-0.18-0.22
				l-0.59,0.39l-0.04,0.03l0.03-0.04l0.26-0.52l-0.18-0.18l-0.52,0.26l-0.04,0.03l0.03-0.04l0.39-0.59
				c-0.07-0.06-0.13-0.11-0.22-0.18l-0.59,0.93c0.08,0.06,0.17,0.14,0.24,0.2l0.56-0.29l0.04-0.03l-0.03,0.04L35.19,48.05z"/>
			<path style="clip-path:url(#SVGID_3_);" d="M33.08,46.87l0.25-0.57l0.02-0.05l0,0.05l0.03,0.76c0.09,0.01,0.18,0.02,0.27,0.04
				l-0.04-1.13c-0.13-0.01-0.25-0.02-0.38-0.03l-0.25,0.62l-0.01,0.05l-0.01-0.05l-0.25-0.62c-0.13,0.01-0.25,0.02-0.38,0.03
				l-0.04,1.13c0.09-0.02,0.18-0.03,0.27-0.04l0.03-0.76l0-0.05l0.02,0.05l0.25,0.57H33.08z"/>
			<path style="clip-path:url(#SVGID_3_);" d="M31.02,47.77c0.15-0.16,0.23-0.33,0.08-0.51c-0.08-0.09-0.21-0.11-0.33-0.07l-0.01,0
				l0-0.01c0.02-0.04,0.03-0.18-0.09-0.28c-0.06-0.05-0.13-0.06-0.21-0.06c-0.14,0.01-0.24,0.11-0.53,0.43
				c-0.09,0.1-0.21,0.25-0.29,0.35l0.8,0.75C30.7,48.09,30.81,47.98,31.02,47.77 M29.98,47.58c0.16-0.2,0.33-0.37,0.41-0.44
				c0.02-0.02,0.05-0.04,0.08-0.05c0.05-0.01,0.11,0.02,0.12,0.08c0.01,0.05-0.02,0.1-0.06,0.15c-0.08,0.1-0.4,0.42-0.4,0.42
				L29.98,47.58z M30.29,47.88c0,0,0.3-0.32,0.4-0.42c0.04-0.04,0.06-0.07,0.09-0.08c0.03-0.02,0.07-0.02,0.11,0
				c0.03,0.02,0.05,0.06,0.04,0.1c-0.01,0.05-0.05,0.09-0.08,0.12c-0.04,0.04-0.4,0.43-0.4,0.43L30.29,47.88z"/>
			<path style="clip-path:url(#SVGID_3_);fill:#006FBA;" d="M32.96,47.27V50h-2.73C30.23,48.49,31.45,47.27,32.96,47.27"/>
			<path style="clip-path:url(#SVGID_3_);fill:#006FBA;" d="M35.69,50c0,1.51-1.22,2.73-2.73,2.73V50H35.69z"/>
		</g>
	</g>
</g>
</svg>
